<svg width="195" height="66" fill="none" xmlns="http://www.w3.org/2000/svg"><g clip-path="url(#clip0_119_44)" fill="#fff"><path d="M1.198 0h7.856l.38.064c.69.61 1.288 1.317 1.946 1.96v4.593c-.666.673-1.306 1.369-1.988 2.026H3.78v4.4c-.866 0-1.734.001-2.6-.002.014-4.348-.022-8.694.018-13.041zM3.78 2.162v4.32h4.428c.22-.215.438-.432.652-.652-.002-1.006 0-2.013 0-3.019-.216-.22-.433-.435-.652-.65l-4.428.001zM17.13 0h6.27l.367.064c.726.676 1.416 1.391 2.11 2.097-.017 2.929.004 5.856-.009 8.786-.706.696-1.402 1.4-2.108 2.097-2.255-.003-4.512-.001-6.768-.001-.704-.7-1.408-1.4-2.109-2.104.003-2.933-.001-5.866.003-8.799.761-.696 1.41-1.533 2.243-2.14zm.314 3.162c0 2.252.002 4.503 0 6.755.32.324.643.645.966.965h3.934c.325-.319.648-.641.967-.963 0-2.25-.001-4.502.002-6.753-.323-.323-.646-.645-.97-.966-1.31.002-2.623 0-3.933 0-.323.319-.645.641-.966.962zM47.98 0h9.416c.034.732.009 1.465.018 2.198-2.284.005-4.569 0-6.853.002 0 1.087-.002 2.175.002 3.26H56.9v2.122c-2.114.002-4.226 0-6.338 0-.004 1.1-.002 2.2 0 3.299h6.848c.003.72.002 1.44.002 2.162-3.15-.002-6.302.003-9.452-.003.014-4.347-.023-8.693.019-13.04zm13.229 0h7.866l.372.066c.69.61 1.288 1.315 1.945 1.958.002 1.333-.003 2.665.003 3.998-.408.42-.827.826-1.236 1.241.438.483.883.96 1.315 1.45-.006 1.443-.002 2.886-.002 4.328-.855.002-1.709.003-2.562-.001 0-1.239.004-2.478-.003-3.718-.364-.401-.731-.799-1.078-1.213-1.345-.035-2.692-.007-4.037-.016v4.95c-.868 0-1.734.001-2.6-.002.012-4.348-.022-8.694.017-13.041zm2.583 2.16v3.811h4.43c.217-.215.434-.43.65-.649-.002-.837 0-1.675 0-2.512a64.047 64.047 0 00-.652-.65c-1.476.002-2.952 0-4.428 0zM75.544 0h9.416c.035.732.01 1.465.02 2.198-2.285.005-4.57 0-6.854.002 0 1.087-.002 2.175.001 3.26h6.339v2.122c-2.114.002-4.226 0-6.339 0-.003 1.1-.001 2.2 0 3.299 2.284.003 4.568-.004 6.852.003-.003.72-.001 1.44-.001 2.159h-9.45c.008-4.348-.023-8.696.016-13.043zm13.231 0h8.02l.374.066c.762.707 1.474 1.466 2.22 2.19.002 2.854 0 5.71.002 8.563a584.75 584.75 0 01-2.23 2.225c-2.802-.004-5.603.002-8.405-.004.014-4.347-.022-8.693.02-13.04zm2.582 2.2v8.68c1.506 0 3.01.007 4.516-.003.297-.312.615-.605.913-.917.096-.212.02-.462.044-.689.002-2.031-.004-4.065.005-6.097-.316-.33-.647-.646-.965-.972-1.505-.004-3.009 0-4.513-.002zM110.353 0h7.868l.37.064c.63.574 1.208 1.206 1.824 1.795.006 1.234.003 2.469.001 3.702-.245.24-.485.483-.72.731.451.443.892.893 1.314 1.362 0 1.13-.008 2.26.003 3.39-.655.676-1.331 1.331-1.992 1.999-2.895-.002-5.79.003-8.686-.003.015-4.347-.022-8.693.018-13.04zm2.506 2.162c-.003 1.099 0 2.197-.003 3.296 1.435.001 2.871.009 4.306-.004.279-.183.536-.455.731-.726.014-.625-.003-1.25.006-1.876-.23-.232-.46-.462-.691-.691l-4.349.001zm-.002 5.38c0 1.128 0 2.253.002 3.378 1.592.003 3.185-.002 4.779.003.255-.292.603-.523.806-.852.014-.586-.001-1.174.005-1.761a92.643 92.643 0 00-.769-.767h-4.823zM29.113.04c.863-.002 1.726-.002 2.59 0 .552 3.068 1.037 6.15 1.612 9.214.843-3.077 1.728-6.143 2.587-9.215.652 0 1.302-.001 1.953.002.852 3.069 1.682 6.144 2.55 9.208.527-3.069 1.068-6.136 1.581-9.21.867-.003 1.731.003 2.598-.003-.88 4.339-1.793 8.671-2.695 13.007-.81-.014-1.623.031-2.432-.024-.832-3.045-1.71-6.078-2.573-9.112-.918 3.034-1.772 6.09-2.66 9.136h-2.42C30.917 8.706 30 4.376 29.112.04zm94.038 0c.942-.002 1.885.001 2.827-.003a7290.9 7290.9 0 003.094 5.303c1.053-1.758 2.061-3.543 3.11-5.305.942.006 1.884.006 2.826 0-1.529 2.571-3.1 5.117-4.618 7.692-.021 1.771-.005 3.542-.008 5.315-.868.003-1.736.001-2.602 0-.005-1.77.013-3.539-.006-5.308-1.53-2.571-3.097-5.122-4.623-7.694zM6.209 21.297c5.228-.032 10.457.017 15.685-.074 2.368.004 4.735 0 7.102.003 2.854.185 5.186 2.835 5.21 5.65.004 11.367.005 22.733 0 34.1-.024 2.402-2.02 4.63-4.443 4.812-8.606.005-17.214-.001-25.82.004-1.976-.059-3.767-1.735-3.874-3.72 0-11.84.002-23.681-.001-35.522-.04-1.655.61-3.395 1.987-4.388.767-.534 1.698-.979 2.658-.856.497.014.998.02 1.496-.01zm8.252 10.563c-.611.276-.98.946-.954 1.607.006 3.15-.002 6.299.004 9.45.011.207-.088.401-.075.61.008 3.717-.005 7.433.006 11.15.126.7.794 1.3 1.523 1.25.944.04 1.89.056 2.834.012.464.033.935.048 1.397-.029.66-.114 1.186-.713 1.244-1.373 0-7.131-.003-14.262.002-21.395-.02-.73-.637-1.479-1.404-1.466-1.04.093-2.085.022-3.128.044-.483.022-.997-.085-1.449.14zm23.59-10.635c8.25-.001 16.498-.003 24.749 0 .263.224.512.466.754.712 2.908 2.906 5.823 5.804 8.73 8.71-.007 8.639-.008 17.279.001 25.917-2.996 3.033-6.036 6.02-9.043 9.042a2.226 2.226 0 01-.48.394H38.056c-.008-14.925 0-29.85-.005-44.775zm14.411 10.532c-.575.189-1.04.776-.98 1.396.008 7.128 0 14.256.005 21.385.033.725.706 1.361 1.44 1.336 1.503.002 3.005.003 4.508-.002.786.02 1.443-.735 1.373-1.507.002-7.071 0-14.143.002-21.212.063-.739-.56-1.468-1.318-1.45-1.675.06-3.363-.042-5.03.054zm22.931-10.329c3.021-.005 6.04-.006 9.062.001-.007 11.56.003 23.12-.005 34.682-.038.404.403.665.762.65 5.195.002 10.388-.003 15.583.003l.088.202c-.042 2.974-.027 5.963-.011 8.941-6.845.049-13.694.013-20.54.024-1.645-.014-3.291.03-4.936-.033 0-14.824.007-29.647-.003-44.47zm37.636.09a.71.71 0 01.518-.17c2.846.007 5.694-.001 8.54.005.412 0 .407.528.498.814 3.091 14.617 6.255 29.22 9.353 43.834h-8.945c-.102-.148-.201-.304-.216-.485-.264-1.609-.582-3.208-.823-4.819.058-.523-.24-1.165-.829-1.182-2.213-.008-4.426 0-6.639-.005-.454-.023-.86.393-.827.843a82.217 82.217 0 01-.717 4.39c-.077.39-.097.803-.31 1.152-1.419.068-2.838.024-4.256.035-1.575.037-3.15.088-4.725.048 3.09-14.582 6.284-29.143 9.335-43.734.051-.239.041-.484.043-.726zm4.486 18.384c-.589 3.008-1.073 6.036-1.635 9.048-.095.477-.24 1.188.364 1.386 1.099.011 2.202.013 3.303-.001.491-.173.436-.743.4-1.16-.446-2.665-.904-5.327-1.369-7.989-.068-.611-.213-1.22-.176-1.839-.437-.388-.876.107-.887.555zm17.37-18.554c7.178.006 14.357-.002 21.535.004.816-.047 1.293.68 1.812 1.18 1.523 1.573 3.144 3.047 4.695 4.592.395.374.544.934.529 1.463-.003 3.935-.001 7.868-.001 11.803-.002.558.055 1.146-.199 1.664-.275.65-1.093.9-1.25 1.62.179.719 1.008.94 1.272 1.605.248.48.166 1.03.177 1.55 0 4.091-.002 8.182.001 12.274a1.37 1.37 0 01-.382.965c-1.262 1.258-2.513 2.528-3.778 3.782-.752.721-1.416 1.537-2.266 2.15h-22.079c-.004-14.457 0-28.913-.001-43.37-.006-.427.034-.861-.065-1.282zm9.465 9.345c-.181.088-.266.283-.34.454-.014 2.348.002 4.697-.008 7.045-.072.44.332.866.769.869a894.53 894.53 0 014.079 0c1.571-.148 3.157-.024 4.734-.077.363-.079.697-.406.677-.792-.006-2.307.001-4.615-.003-6.922-.016-.338-.304-.73-.679-.676-3.01.005-6.022-.005-9.032.005l-.197.094zm.132 17.466a.801.801 0 00-.581.876c.007 2.305-.017 4.613.013 6.919-.016.444.417.759.838.735 2.936.002 5.873-.002 8.809.002.394.033.768-.348.7-.742-.005-2.307-.003-4.615-.002-6.922.018-.437-.364-.784-.786-.803-1.487-.036-2.98.07-4.459-.07-1.51.008-3.021-.007-4.532.005zm27.919-26.386a1.243 1.243 0 011.004-.425c4.943.005 9.887.003 14.831 0 .38-.022.726.2.966.48 1.718 1.788 3.485 3.53 5.24 5.283.271.265.468.631.458 1.018-.006 1.835.008 3.672-.007 5.508-.148.218-.465.093-.681.129-2.734-.005-5.469.001-8.203-.002-.197-.27-.118-.607-.128-.916-.004-.586.01-1.17-.004-1.755-.052-.371-.432-.613-.788-.57-2.988.01-5.978-.01-8.964.01-.222.107-.455.32-.438.588.008 2.444-.003 4.889.006 7.332.073.404.514.61.894.605 3.878 0 7.755.002 11.635-.001.439-.046.778.298 1.099.55 1.744 1.783 3.521 3.534 5.283 5.299.175.18.326.422.326.683.002 4.553-.001 9.103.002 13.656.033.313-.142.6-.364.804-1.852 1.828-3.673 3.687-5.524 5.515-.255.253-.611.416-.972.369-4.982-.038-9.959.099-14.941.052-.618-.225-1.011-.777-1.465-1.215-1.37-1.36-2.722-2.734-4.089-4.095-.512-.456-.999-1.034-.977-1.762.011-1.766-.05-3.535.033-5.299 1.303-.157 2.629-.028 3.941-.07 1.703.014 3.407-.029 5.11.022.019.837-.005 1.676.009 2.514.016.358.347.685.711.682 3.01-.002 6.022.005 9.033-.005.258-.107.493-.363.47-.66.007-2.358.004-4.717.001-7.076.038-.438-.372-.789-.787-.795-3.959-.01-7.919.002-11.877-.005-.43-.025-.791-.305-1.071-.606-1.822-1.759-3.561-3.602-5.363-5.381-.315-.327-.274-.806-.279-1.223.008-4.176-.011-8.353.009-12.53-.033-.663.328-1.267.824-1.683 1.681-1.674 3.362-3.347 5.037-5.025z"/></g><defs><clipPath id="clip0_119_44"><path fill="#fff" d="M0 0h195v66H0z"/></clipPath></defs></svg>