<?xml version="1.0" encoding="UTF-8" ?>
<!DOCTYPE svg PUBLIC "-//W3C//DTD SVG 1.1//EN" "http://www.w3.org/Graphics/SVG/1.1/DTD/svg11.dtd">
<svg width="240pt" height="240pt" viewBox="0 0 240 240" version="1.1" xmlns="http://www.w3.org/2000/svg">
<g id="#ffffffff">
<path fill="#ffffff" opacity="1.00" d=" M 71.17 11.01 C 71.92 10.25 72.82 9.91 73.87 10.00 C 103.92 10.03 133.97 10.04 164.02 10.00 C 165.96 10.16 168.30 9.41 169.83 11.01 C 179.52 11.59 189.10 13.99 197.92 18.02 C 209.78 23.72 219.28 33.91 224.35 46.03 C 227.44 54.07 229.51 62.54 229.99 71.17 C 230.75 71.93 231.09 72.84 231.00 73.89 C 230.97 104.97 230.97 136.04 231.00 167.11 C 231.08 168.16 230.75 169.07 229.99 169.83 C 229.46 178.79 227.35 187.63 223.91 195.91 C 218.43 208.58 207.91 219.00 195.11 224.22 C 187.08 227.51 178.49 229.46 169.82 229.99 C 169.07 230.76 168.18 231.09 167.13 231.00 C 136.05 230.97 104.96 230.97 73.88 231.00 C 72.83 231.08 71.92 230.75 71.17 229.99 C 62.54 229.52 54.06 227.44 46.01 224.34 C 36.69 220.61 29.05 213.87 22.66 206.29 C 21.77 205.06 22.33 202.42 20.36 202.40 C 19.03 200.40 18.20 198.09 17.12 195.94 C 13.62 187.67 11.56 178.79 11.00 169.84 C 10.25 169.08 9.92 168.17 10.00 167.12 C 10.03 137.06 10.04 106.99 10.00 76.93 C 10.16 74.99 9.40 72.68 11.01 71.17 C 11.58 62.22 13.59 53.34 17.14 45.10 C 17.35 44.59 17.79 43.57 18.01 43.06 C 23.59 31.57 33.33 22.16 45.07 17.10 C 53.35 13.64 62.21 11.54 71.17 11.01 M 71.46 30.82 C 59.27 31.92 46.17 36.24 38.94 46.75 C 31.04 58.17 30.27 72.57 30.21 85.99 C 29.40 105.63 29.99 125.32 29.80 144.98 C 30.70 157.71 29.44 170.84 33.53 183.15 C 36.40 192.56 42.86 201.05 51.98 205.09 C 65.65 211.91 81.30 210.21 96.05 211.20 C 120.40 211.05 144.77 211.68 169.08 210.24 C 180.37 209.21 192.32 205.70 200.01 196.89 C 208.18 187.27 210.35 174.18 210.64 161.94 C 211.51 139.64 211.11 117.30 211.19 94.97 C 210.33 83.68 211.37 72.14 208.41 61.08 C 205.93 50.73 199.61 40.86 189.73 36.25 C 175.92 29.07 159.96 30.79 144.98 29.80 C 120.47 29.95 95.93 29.30 71.46 30.82 Z" />
<path fill="#ffffff" opacity="1.00" d=" M 171.64 50.67 C 177.05 47.02 185.04 47.63 189.39 52.66 C 194.31 58.01 193.61 67.34 187.90 71.83 C 183.34 75.51 176.48 75.47 171.64 72.39 C 170.61 71.39 169.60 70.38 168.61 69.35 C 165.49 64.64 165.59 58.36 168.62 53.63 C 169.60 52.62 170.61 51.63 171.64 50.67 Z" />
<path fill="#ffffff" opacity="1.00" d=" M 88.54 73.62 C 99.39 66.08 112.99 62.68 126.12 63.91 C 138.55 65.28 150.53 70.66 159.58 79.33 C 171.85 90.91 178.67 108.23 177.06 125.07 C 176.08 138.87 169.63 152.13 159.62 161.64 C 147.86 172.93 131.10 178.70 114.89 177.08 C 98.16 175.36 82.31 165.96 73.17 151.78 C 67.95 144.19 65.01 135.22 63.91 126.12 C 63.53 122.38 63.54 118.61 63.91 114.88 C 65.65 98.44 74.72 82.81 88.54 73.62 M 110.16 85.12 C 109.15 85.43 108.15 85.75 107.14 86.08 C 97.64 89.89 89.91 97.62 86.10 107.12 C 82.87 115.68 82.92 125.32 86.09 133.89 C 89.92 143.36 97.61 151.09 107.10 154.89 C 108.12 155.22 109.14 155.56 110.16 155.89 C 117.92 158.13 126.34 157.72 133.88 154.88 C 143.39 151.11 151.08 143.35 154.91 133.88 C 158.12 125.31 158.12 115.68 154.90 107.11 C 151.08 97.64 143.38 89.90 133.89 86.11 C 132.87 85.77 131.85 85.44 130.84 85.11 C 124.12 83.19 116.88 83.17 110.16 85.12 Z" />
</g>
</svg>
